<?xml version="1.0" standalone="no"?>
<!DOCTYPE svg PUBLIC "-//W3C//DTD SVG 20010904//EN"
 "http://www.w3.org/TR/2001/REC-SVG-20010904/DTD/svg10.dtd">
<svg version="1.0" xmlns="http://www.w3.org/2000/svg"
 width="482.000000pt" height="410.000000pt" viewBox="0 0 482.000000 410.000000"
 preserveAspectRatio="xMidYMid meet">

<g transform="translate(0.000000,410.000000) scale(0.100000,-0.100000)"
fill="#000000" stroke="none">
<path d="M2070 3850 c-248 -42 -467 -123 -660 -243 -717 -447 -1036 -1303
-780 -2089 46 -139 83 -218 102 -218 10 0 66 7 125 15 59 8 169 22 242 30 74
9 136 17 138 19 2 2 -17 42 -42 89 -121 227 -171 481 -146 737 32 327 160 595
389 818 172 167 397 286 642 339 64 14 129 18 265 18 244 0 387 -31 580 -127
345 -172 597 -485 686 -853 75 -312 30 -662 -122 -944 -22 -40 -38 -75 -36
-77 1 -2 81 -12 177 -24 96 -11 202 -25 235 -30 98 -16 109 -14 124 23 119
292 155 462 155 727 0 315 -59 555 -207 842 -232 452 -667 796 -1162 917 -222
54 -498 67 -705 31z"/>
<path d="M2154 3274 c-387 -65 -724 -315 -903 -671 -171 -341 -165 -747 16
-1094 67 -128 80 -142 126 -134 l37 7 -34 47 c-108 149 -178 360 -191 581 -39
654 477 1200 1135 1200 307 0 576 -104 789 -305 261 -246 391 -599 351 -955
-20 -185 -95 -396 -184 -520 l-35 -48 37 -7 c45 -8 58 6 126 136 249 471 159
1037 -223 1420 -278 276 -673 406 -1047 343z"/>
<path d="M2334 2959 c-159 -154 -239 -277 -280 -429 -22 -84 -22 -222 1 -320
9 -41 19 -127 22 -190 4 -98 2 -120 -14 -149 -27 -52 -64 -74 -132 -79 -56 -4
-60 -2 -97 31 -50 45 -75 114 -83 226 l-6 86 -44 -55 c-143 -179 -168 -403
-70 -629 l22 -53 256 7 c294 8 265 -3 325 120 21 41 41 105 50 155 17 92 23
279 12 348 -10 54 5 55 50 5 48 -53 140 -191 163 -244 41 -92 47 -241 15 -355
-5 -21 -3 -21 251 -28 191 -5 261 -4 271 5 25 20 85 158 106 243 31 121 22
287 -21 416 -52 152 -134 287 -251 414 -54 58 -166 147 -158 124 41 -105 73
-279 64 -340 -10 -63 -33 -82 -92 -74 -139 19 -274 166 -305 332 -18 95 -6
312 24 424 13 52 23 97 21 99 -1 1 -46 -39 -100 -90z"/>
<path d="M1965 1359 c-427 -15 -861 -56 -1305 -125 -166 -25 -275 -49 -180
-39 25 2 135 18 245 34 858 128 1742 154 2610 76 217 -20 536 -59 727 -91 81
-13 161 -23 176 -23 69 3 -335 66 -663 104 -550 63 -1070 84 -1610 64z"/>
<path d="M1873 1253 c-76 -3 -93 -7 -97 -21 -7 -26 -46 -249 -46 -267 0 -19
26 -20 34 0 3 8 8 37 12 65 6 48 8 50 39 50 17 0 66 3 108 6 l75 7 7 -67 c6
-54 11 -66 24 -64 14 3 16 20 12 143 -2 77 -5 143 -8 148 -2 4 -19 6 -36 5
-18 -1 -73 -4 -124 -5z m117 -83 l0 -40 -93 0 -93 0 4 34 c4 38 11 41 130 44
l52 2 0 -40z"/>
<path d="M2110 1115 c0 -138 1 -145 20 -145 19 0 20 7 20 120 0 103 2 120 16
120 8 0 65 -25 125 -56 l109 -56 0 -64 c0 -57 2 -64 20 -64 19 0 20 7 20 145
0 138 -1 145 -20 145 -18 0 -20 -7 -20 -55 0 -42 -3 -55 -15 -55 -9 0 -65 25
-125 55 -60 30 -119 55 -130 55 -19 0 -20 -6 -20 -145z"/>
<path d="M2516 1199 c-3 -34 -6 -100 -6 -145 0 -77 2 -84 20 -84 18 0 20 7 20
60 l0 60 106 0 c95 0 105 2 102 18 -3 15 -17 17 -106 20 -112 3 -113 4 -95 71
l6 24 139 -7 c132 -7 138 -7 138 12 0 17 -10 20 -97 25 -54 4 -125 7 -159 7
l-61 0 -7 -61z"/>
<path d="M2916 1198 c-3 -29 -8 -97 -11 -150 -5 -92 -4 -98 14 -98 16 0 20 10
25 68 3 37 7 103 8 147 3 68 1 80 -14 83 -13 3 -17 -7 -22 -50z"/>
<path d="M1455 1226 l-120 -11 1 -45 c1 -25 5 -91 9 -148 l7 -103 27 5 c14 3
75 8 134 12 91 5 113 10 134 28 24 21 24 23 17 124 -10 153 -15 156 -209 138z
m153 -48 c16 -16 15 -43 0 -55 -7 -6 -61 -14 -120 -17 l-108 -7 0 35 c0 39 7
42 110 49 95 7 106 7 118 -5z m16 -134 c19 -49 -9 -59 -169 -66 l-60 -3 0 35
0 35 55 6 c116 12 167 10 174 -7z"/>
<path d="M3061 1222 c-26 -20 -39 -72 -41 -156 -2 -78 -2 -77 15 -100 12 -16
37 -21 152 -31 76 -7 141 -9 144 -6 4 3 9 41 12 84 5 71 4 77 -13 77 -16 0
-20 -11 -26 -61 l-7 -62 -111 7 c-61 4 -115 11 -120 16 -4 4 -7 50 -4 100 5
102 11 112 68 105 19 -2 65 -7 103 -10 62 -5 67 -4 67 14 0 17 -10 20 -87 26
-49 3 -98 8 -109 10 -12 3 -32 -3 -43 -13z"/>
<path d="M3439 1207 c0 -1 -8 -66 -18 -144 -15 -124 -15 -143 -3 -148 21 -8
23 -4 29 59 3 31 9 58 12 60 3 2 56 -2 116 -10 61 -7 114 -13 119 -14 4 0 5
-29 1 -65 -6 -60 -5 -65 12 -65 17 0 21 13 32 113 7 61 15 127 18 145 4 27 2
32 -15 32 -17 0 -21 -9 -27 -61 l-7 -61 -52 6 c-28 3 -84 9 -124 12 l-72 7 6
62 c5 52 4 63 -10 68 -9 4 -16 5 -17 4z"/>
<path d="M1046 1184 c-60 -8 -110 -15 -112 -17 -1 -1 6 -66 14 -144 15 -129
18 -143 36 -143 17 0 18 5 12 64 l-6 63 37 7 c21 3 57 6 79 6 38 0 47 -5 92
-55 28 -30 58 -55 66 -55 24 0 19 13 -19 50 -39 38 -46 75 -15 85 11 3 25 15
30 26 15 27 2 86 -23 110 -24 22 -40 22 -191 3z m169 -69 c0 -34 -15 -39 -146
-51 l-76 -6 -7 32 c-3 18 -5 35 -3 36 7 7 137 22 182 20 48 -1 50 -2 50 -31z"/>
<path d="M820 1145 c0 -9 7 -64 16 -121 11 -70 13 -109 7 -115 -6 -6 -58 -18
-117 -26 -123 -19 -120 -20 -130 61 -18 141 -27 174 -45 169 -17 -4 -17 -10 0
-121 10 -64 19 -120 19 -124 0 -4 11 -15 25 -24 23 -15 33 -15 139 1 93 14
119 22 136 40 l21 23 -18 123 c-15 101 -21 124 -35 127 -11 2 -18 -3 -18 -13z"/>
<path d="M3836 1153 c-18 -19 0 -31 60 -41 37 -6 68 -13 71 -16 2 -2 -3 -57
-13 -121 -15 -99 -16 -118 -4 -125 8 -5 16 -7 18 -5 2 2 12 56 22 120 9 63 20
118 23 121 3 4 35 2 71 -3 58 -8 65 -8 69 9 3 10 3 18 0 18 -9 0 -269 40 -289
45 -12 2 -24 2 -28 -2z"/>
<path d="M1895 874 c-27 -2 -129 -8 -225 -14 -154 -10 -303 -23 -516 -46 -41
-4 -64 -3 -68 5 -10 16 -26 14 -26 -4 0 -9 -9 -15 -21 -15 -31 0 -480 -70
-509 -79 -22 -7 -12 -15 97 -69 68 -34 125 -62 128 -62 3 0 5 36 5 80 0 69 2
80 18 80 9 0 51 5 92 11 78 11 107 14 405 48 332 38 646 53 1075 53 525 0 935
-27 1418 -93 l162 -22 0 -78 c0 -44 2 -79 5 -79 12 0 247 122 243 126 -23 22
-670 106 -1083 140 -167 14 -1069 27 -1200 18z m-1155 -199 c0 -30 -2 -55 -5
-55 -15 0 -168 84 -159 87 23 8 101 21 132 22 l32 1 0 -55z m3355 36 c29 -8
28 -9 -52 -49 -46 -23 -85 -42 -88 -42 -3 0 -5 25 -5 56 l0 57 58 -7 c31 -4
71 -10 87 -15z"/>
<path d="M1170 708 c326 -282 743 -438 1175 -438 410 0 802 139 1123 397 l54
43 -169 0 c-188 0 -1581 17 -1968 24 l-250 5 35 -31z"/>
</g>
</svg>
